<mxfile host="app.diagrams.net" modified="2022-04-07T05:26:06.698Z" agent="5.0 (Macintosh; Intel Mac OS X 10_15_7) AppleWebKit/605.1.15 (KHTML, like Gecko) Version/15.3 Safari/605.1.15" etag="9wrru-KTUxbgYtr_Yj2O" version="17.2.6" type="github">
  <diagram id="C5RBs43oDa-KdzZeNtuy" name="Page-1">
    <mxGraphModel dx="882" dy="1440" grid="1" gridSize="10" guides="1" tooltips="1" connect="1" arrows="1" fold="1" page="1" pageScale="1" pageWidth="827" pageHeight="1169" math="0" shadow="0">
      <root>
        <mxCell id="WIyWlLk6GJQsqaUBKTNV-0" />
        <mxCell id="WIyWlLk6GJQsqaUBKTNV-1" parent="WIyWlLk6GJQsqaUBKTNV-0" />
        <mxCell id="AjbQzTeru6gs-PDaE3Oq-4" value="&lt;&lt;Model&gt;&gt;&#xa;KB_Produk" style="swimlane;fontStyle=1;align=center;verticalAlign=top;childLayout=stackLayout;horizontal=1;startSize=50;horizontalStack=0;resizeParent=1;resizeParentMax=0;resizeLast=0;collapsible=1;marginBottom=0;fontSize=15;" vertex="1" parent="WIyWlLk6GJQsqaUBKTNV-1">
          <mxGeometry x="320" y="310" width="200" height="674" as="geometry" />
        </mxCell>
        <mxCell id="AjbQzTeru6gs-PDaE3Oq-5" value="- NoDataProduk : int&#xa;- NoDataUserPenjual : int&#xa;- KodeCabang : int&#xa;- NoDataPJJ : int&#xa;- NoPJJ : int&#xa;- Status : string&#xa;- ActiveDate : date&#xa;- NamaProduk : string&#xa;- HargaProduk : int&#xa;- Kondisi : string&#xa;- JenisKendaraan : string&#xa;- KodeKendaraan : string&#xa;- Model : string&#xa;- Merk : string&#xa;- Tipe : string&#xa;- Warna : string&#xa;- Transmisi : string&#xa;- Mesin : string&#xa;- Tahun : int&#xa;- Lokasi : string&#xa;- TanggalSTNK : date&#xa;- Kilometer : int&#xa;- Hourmeters : int&#xa;- BahanBakar : string&#xa;- NomorPolisi : string&#xa;- Keterangan : string&#xa;- StatusApproval : string&#xa;- IsSold : int&#xa;- DibuatOleh : string&#xa;- WaktuDibuat : date&#xa;- DiubahOleh : string&#xa;- Waktu Diubah : date" style="text;strokeColor=none;fillColor=none;align=left;verticalAlign=top;spacingLeft=4;spacingRight=4;overflow=hidden;rotatable=0;points=[[0,0.5],[1,0.5]];portConstraint=eastwest;fontSize=15;" vertex="1" parent="AjbQzTeru6gs-PDaE3Oq-4">
          <mxGeometry y="50" width="200" height="590" as="geometry" />
        </mxCell>
        <mxCell id="AjbQzTeru6gs-PDaE3Oq-6" value="" style="line;strokeWidth=1;fillColor=none;align=left;verticalAlign=middle;spacingTop=-1;spacingLeft=3;spacingRight=3;rotatable=0;labelPosition=right;points=[];portConstraint=eastwest;fontSize=15;" vertex="1" parent="AjbQzTeru6gs-PDaE3Oq-4">
          <mxGeometry y="640" width="200" height="8" as="geometry" />
        </mxCell>
        <mxCell id="AjbQzTeru6gs-PDaE3Oq-7" value=" " style="text;strokeColor=none;fillColor=none;align=left;verticalAlign=top;spacingLeft=4;spacingRight=4;overflow=hidden;rotatable=0;points=[[0,0.5],[1,0.5]];portConstraint=eastwest;fontSize=15;" vertex="1" parent="AjbQzTeru6gs-PDaE3Oq-4">
          <mxGeometry y="648" width="200" height="26" as="geometry" />
        </mxCell>
        <mxCell id="AjbQzTeru6gs-PDaE3Oq-12" value="&lt;&lt;Model&gt;&gt;&#xa;KB_User" style="swimlane;fontStyle=1;align=center;verticalAlign=top;childLayout=stackLayout;horizontal=1;startSize=50;horizontalStack=0;resizeParent=1;resizeParentMax=0;resizeLast=0;collapsible=1;marginBottom=0;fontSize=15;" vertex="1" parent="WIyWlLk6GJQsqaUBKTNV-1">
          <mxGeometry x="320" y="1020" width="200" height="354" as="geometry" />
        </mxCell>
        <mxCell id="AjbQzTeru6gs-PDaE3Oq-13" value="- NoDataUser : int&#xa;- NoDataTipeUser : int&#xa;- Email : string&#xa;- Password : string&#xa;- Nama : string&#xa;- NIK : string&#xa;- TanggalLahir : date&#xa;- Telepon : string&#xa;- Koordinat : string&#xa;- Alamat : string&#xa;- DibuatOleh : string&#xa;- WaktuDibuat : date&#xa;- DiubahOleh : string&#xa;- WaktuDiubah : date" style="text;strokeColor=none;fillColor=none;align=left;verticalAlign=top;spacingLeft=4;spacingRight=4;overflow=hidden;rotatable=0;points=[[0,0.5],[1,0.5]];portConstraint=eastwest;fontSize=15;" vertex="1" parent="AjbQzTeru6gs-PDaE3Oq-12">
          <mxGeometry y="50" width="200" height="270" as="geometry" />
        </mxCell>
        <mxCell id="AjbQzTeru6gs-PDaE3Oq-14" value="" style="line;strokeWidth=1;fillColor=none;align=left;verticalAlign=middle;spacingTop=-1;spacingLeft=3;spacingRight=3;rotatable=0;labelPosition=right;points=[];portConstraint=eastwest;fontSize=15;" vertex="1" parent="AjbQzTeru6gs-PDaE3Oq-12">
          <mxGeometry y="320" width="200" height="8" as="geometry" />
        </mxCell>
        <mxCell id="AjbQzTeru6gs-PDaE3Oq-15" value=" " style="text;strokeColor=none;fillColor=none;align=left;verticalAlign=top;spacingLeft=4;spacingRight=4;overflow=hidden;rotatable=0;points=[[0,0.5],[1,0.5]];portConstraint=eastwest;fontSize=15;" vertex="1" parent="AjbQzTeru6gs-PDaE3Oq-12">
          <mxGeometry y="328" width="200" height="26" as="geometry" />
        </mxCell>
        <mxCell id="AjbQzTeru6gs-PDaE3Oq-16" value="&lt;&lt;Model&gt;&gt;&#xa;KB_Foto_Produk" style="swimlane;fontStyle=1;align=center;verticalAlign=top;childLayout=stackLayout;horizontal=1;startSize=50;horizontalStack=0;resizeParent=1;resizeParentMax=0;resizeLast=0;collapsible=1;marginBottom=0;fontSize=15;" vertex="1" parent="WIyWlLk6GJQsqaUBKTNV-1">
          <mxGeometry x="320" y="1820" width="200" height="244" as="geometry" />
        </mxCell>
        <mxCell id="AjbQzTeru6gs-PDaE3Oq-17" value="- NoDataFotoProduk : int&#xa;- NoDataProduk : int&#xa;- PathFoto : string&#xa;- KeteranganFoto : string&#xa;- DibuatOleh : string&#xa;- WaktuDibuat : date&#xa;- DiubahOleh : string&#xa;- WaktuDiubah : date" style="text;strokeColor=none;fillColor=none;align=left;verticalAlign=top;spacingLeft=4;spacingRight=4;overflow=hidden;rotatable=0;points=[[0,0.5],[1,0.5]];portConstraint=eastwest;fontSize=15;" vertex="1" parent="AjbQzTeru6gs-PDaE3Oq-16">
          <mxGeometry y="50" width="200" height="160" as="geometry" />
        </mxCell>
        <mxCell id="AjbQzTeru6gs-PDaE3Oq-18" value="" style="line;strokeWidth=1;fillColor=none;align=left;verticalAlign=middle;spacingTop=-1;spacingLeft=3;spacingRight=3;rotatable=0;labelPosition=right;points=[];portConstraint=eastwest;fontSize=15;" vertex="1" parent="AjbQzTeru6gs-PDaE3Oq-16">
          <mxGeometry y="210" width="200" height="8" as="geometry" />
        </mxCell>
        <mxCell id="AjbQzTeru6gs-PDaE3Oq-19" value=" " style="text;strokeColor=none;fillColor=none;align=left;verticalAlign=top;spacingLeft=4;spacingRight=4;overflow=hidden;rotatable=0;points=[[0,0.5],[1,0.5]];portConstraint=eastwest;fontSize=15;" vertex="1" parent="AjbQzTeru6gs-PDaE3Oq-16">
          <mxGeometry y="218" width="200" height="26" as="geometry" />
        </mxCell>
        <mxCell id="AjbQzTeru6gs-PDaE3Oq-20" value="&lt;&lt;Model&gt;&gt;&#xa;KB_Penawaran" style="swimlane;fontStyle=1;align=center;verticalAlign=top;childLayout=stackLayout;horizontal=1;startSize=50;horizontalStack=0;resizeParent=1;resizeParentMax=0;resizeLast=0;collapsible=1;marginBottom=0;fontSize=15;" vertex="1" parent="WIyWlLk6GJQsqaUBKTNV-1">
          <mxGeometry x="320" y="1430" width="200" height="344" as="geometry" />
        </mxCell>
        <mxCell id="AjbQzTeru6gs-PDaE3Oq-21" value="- NoDataPenawaran : int&#xa;- NoDataProduk : int&#xa;- NoDataUserPenawar : int&#xa;- NoDataUserPenjual : int&#xa;- TipeTransaksi : string&#xa;- StatusPenawaran : string&#xa;- Tenor : int&#xa;- JumlahTawar : int&#xa;- NoTiket : int&#xa;- DibuatOleh : string&#xa;- WaktuDibuat : date&#xa;- DiubahOleh : string&#xa;- WaktuDiubah : date" style="text;strokeColor=none;fillColor=none;align=left;verticalAlign=top;spacingLeft=4;spacingRight=4;overflow=hidden;rotatable=0;points=[[0,0.5],[1,0.5]];portConstraint=eastwest;fontSize=15;" vertex="1" parent="AjbQzTeru6gs-PDaE3Oq-20">
          <mxGeometry y="50" width="200" height="260" as="geometry" />
        </mxCell>
        <mxCell id="AjbQzTeru6gs-PDaE3Oq-22" value="" style="line;strokeWidth=1;fillColor=none;align=left;verticalAlign=middle;spacingTop=-1;spacingLeft=3;spacingRight=3;rotatable=0;labelPosition=right;points=[];portConstraint=eastwest;fontSize=15;" vertex="1" parent="AjbQzTeru6gs-PDaE3Oq-20">
          <mxGeometry y="310" width="200" height="8" as="geometry" />
        </mxCell>
        <mxCell id="AjbQzTeru6gs-PDaE3Oq-23" value=" " style="text;strokeColor=none;fillColor=none;align=left;verticalAlign=top;spacingLeft=4;spacingRight=4;overflow=hidden;rotatable=0;points=[[0,0.5],[1,0.5]];portConstraint=eastwest;fontSize=15;" vertex="1" parent="AjbQzTeru6gs-PDaE3Oq-20">
          <mxGeometry y="318" width="200" height="26" as="geometry" />
        </mxCell>
        <mxCell id="AjbQzTeru6gs-PDaE3Oq-24" value="&lt;&lt;Controller&gt;&gt;&#xa;KB_ProdukBusinessFacede" style="swimlane;fontStyle=1;align=center;verticalAlign=top;childLayout=stackLayout;horizontal=1;startSize=50;horizontalStack=0;resizeParent=1;resizeParentMax=0;resizeLast=0;collapsible=1;marginBottom=0;fontSize=15;" vertex="1" parent="WIyWlLk6GJQsqaUBKTNV-1">
          <mxGeometry x="600" y="710" width="220" height="190" as="geometry" />
        </mxCell>
        <mxCell id="AjbQzTeru6gs-PDaE3Oq-25" value=" " style="text;strokeColor=none;fillColor=none;align=left;verticalAlign=top;spacingLeft=4;spacingRight=4;overflow=hidden;rotatable=0;points=[[0,0.5],[1,0.5]];portConstraint=eastwest;fontSize=15;" vertex="1" parent="AjbQzTeru6gs-PDaE3Oq-24">
          <mxGeometry y="50" width="220" height="26" as="geometry" />
        </mxCell>
        <mxCell id="AjbQzTeru6gs-PDaE3Oq-26" value="" style="line;strokeWidth=1;fillColor=none;align=left;verticalAlign=middle;spacingTop=-1;spacingLeft=3;spacingRight=3;rotatable=0;labelPosition=right;points=[];portConstraint=eastwest;fontSize=15;" vertex="1" parent="AjbQzTeru6gs-PDaE3Oq-24">
          <mxGeometry y="76" width="220" height="8" as="geometry" />
        </mxCell>
        <mxCell id="AjbQzTeru6gs-PDaE3Oq-27" value="+ Create()&#xa;+ Retreive()&#xa;+ RetreiveWithCondition()&#xa;+ Update()&#xa;+ Delete()" style="text;strokeColor=none;fillColor=none;align=left;verticalAlign=top;spacingLeft=4;spacingRight=4;overflow=hidden;rotatable=0;points=[[0,0.5],[1,0.5]];portConstraint=eastwest;fontSize=15;" vertex="1" parent="AjbQzTeru6gs-PDaE3Oq-24">
          <mxGeometry y="84" width="220" height="106" as="geometry" />
        </mxCell>
        <mxCell id="AjbQzTeru6gs-PDaE3Oq-28" value="&lt;&lt;Controller&gt;&gt;&#xa;SecurityWrapper" style="swimlane;fontStyle=1;align=center;verticalAlign=top;childLayout=stackLayout;horizontal=1;startSize=50;horizontalStack=0;resizeParent=1;resizeParentMax=0;resizeLast=0;collapsible=1;marginBottom=0;fontSize=15;" vertex="1" parent="WIyWlLk6GJQsqaUBKTNV-1">
          <mxGeometry x="600" y="1130" width="220" height="130" as="geometry" />
        </mxCell>
        <mxCell id="AjbQzTeru6gs-PDaE3Oq-29" value=" " style="text;strokeColor=none;fillColor=none;align=left;verticalAlign=top;spacingLeft=4;spacingRight=4;overflow=hidden;rotatable=0;points=[[0,0.5],[1,0.5]];portConstraint=eastwest;fontSize=15;" vertex="1" parent="AjbQzTeru6gs-PDaE3Oq-28">
          <mxGeometry y="50" width="220" height="26" as="geometry" />
        </mxCell>
        <mxCell id="AjbQzTeru6gs-PDaE3Oq-30" value="" style="line;strokeWidth=1;fillColor=none;align=left;verticalAlign=middle;spacingTop=-1;spacingLeft=3;spacingRight=3;rotatable=0;labelPosition=right;points=[];portConstraint=eastwest;fontSize=15;" vertex="1" parent="AjbQzTeru6gs-PDaE3Oq-28">
          <mxGeometry y="76" width="220" height="8" as="geometry" />
        </mxCell>
        <mxCell id="AjbQzTeru6gs-PDaE3Oq-31" value="+ AuthenticateLogin()&#xa;+ setLoginSession(user)" style="text;strokeColor=none;fillColor=none;align=left;verticalAlign=top;spacingLeft=4;spacingRight=4;overflow=hidden;rotatable=0;points=[[0,0.5],[1,0.5]];portConstraint=eastwest;fontSize=15;" vertex="1" parent="AjbQzTeru6gs-PDaE3Oq-28">
          <mxGeometry y="84" width="220" height="46" as="geometry" />
        </mxCell>
        <mxCell id="AjbQzTeru6gs-PDaE3Oq-32" value="&lt;&lt;Controller&gt;&gt;&#xa;KB_PenawaranBusinessFacade" style="swimlane;fontStyle=1;align=center;verticalAlign=top;childLayout=stackLayout;horizontal=1;startSize=50;horizontalStack=0;resizeParent=1;resizeParentMax=0;resizeLast=0;collapsible=1;marginBottom=0;fontSize=15;" vertex="1" parent="WIyWlLk6GJQsqaUBKTNV-1">
          <mxGeometry x="600" y="1540" width="250" height="170" as="geometry" />
        </mxCell>
        <mxCell id="AjbQzTeru6gs-PDaE3Oq-33" value=" " style="text;strokeColor=none;fillColor=none;align=left;verticalAlign=top;spacingLeft=4;spacingRight=4;overflow=hidden;rotatable=0;points=[[0,0.5],[1,0.5]];portConstraint=eastwest;fontSize=15;" vertex="1" parent="AjbQzTeru6gs-PDaE3Oq-32">
          <mxGeometry y="50" width="250" height="26" as="geometry" />
        </mxCell>
        <mxCell id="AjbQzTeru6gs-PDaE3Oq-34" value="" style="line;strokeWidth=1;fillColor=none;align=left;verticalAlign=middle;spacingTop=-1;spacingLeft=3;spacingRight=3;rotatable=0;labelPosition=right;points=[];portConstraint=eastwest;fontSize=15;" vertex="1" parent="AjbQzTeru6gs-PDaE3Oq-32">
          <mxGeometry y="76" width="250" height="8" as="geometry" />
        </mxCell>
        <mxCell id="AjbQzTeru6gs-PDaE3Oq-35" value="+ Create()&#xa;+ Retreive()&#xa;+ RetreiveWithCondition()&#xa;+ Update()" style="text;strokeColor=none;fillColor=none;align=left;verticalAlign=top;spacingLeft=4;spacingRight=4;overflow=hidden;rotatable=0;points=[[0,0.5],[1,0.5]];portConstraint=eastwest;fontSize=15;" vertex="1" parent="AjbQzTeru6gs-PDaE3Oq-32">
          <mxGeometry y="84" width="250" height="86" as="geometry" />
        </mxCell>
        <mxCell id="AjbQzTeru6gs-PDaE3Oq-40" value="&lt;&lt;Controller&gt;&gt;&#xa;KB_Foto_ProdukBusinessFacade&#xa;" style="swimlane;fontStyle=1;align=center;verticalAlign=top;childLayout=stackLayout;horizontal=1;startSize=50;horizontalStack=0;resizeParent=1;resizeParentMax=0;resizeLast=0;collapsible=1;marginBottom=0;fontSize=15;" vertex="1" parent="WIyWlLk6GJQsqaUBKTNV-1">
          <mxGeometry x="600" y="1860" width="270" height="190" as="geometry" />
        </mxCell>
        <mxCell id="AjbQzTeru6gs-PDaE3Oq-41" value=" " style="text;strokeColor=none;fillColor=none;align=left;verticalAlign=top;spacingLeft=4;spacingRight=4;overflow=hidden;rotatable=0;points=[[0,0.5],[1,0.5]];portConstraint=eastwest;fontSize=15;" vertex="1" parent="AjbQzTeru6gs-PDaE3Oq-40">
          <mxGeometry y="50" width="270" height="26" as="geometry" />
        </mxCell>
        <mxCell id="AjbQzTeru6gs-PDaE3Oq-42" value="" style="line;strokeWidth=1;fillColor=none;align=left;verticalAlign=middle;spacingTop=-1;spacingLeft=3;spacingRight=3;rotatable=0;labelPosition=right;points=[];portConstraint=eastwest;fontSize=15;" vertex="1" parent="AjbQzTeru6gs-PDaE3Oq-40">
          <mxGeometry y="76" width="270" height="8" as="geometry" />
        </mxCell>
        <mxCell id="AjbQzTeru6gs-PDaE3Oq-43" value="+ Create()&#xa;+ Retreive()&#xa;+ RetreiveWithCondition()&#xa;+ Update()&#xa;+ Delete()" style="text;strokeColor=none;fillColor=none;align=left;verticalAlign=top;spacingLeft=4;spacingRight=4;overflow=hidden;rotatable=0;points=[[0,0.5],[1,0.5]];portConstraint=eastwest;fontSize=15;" vertex="1" parent="AjbQzTeru6gs-PDaE3Oq-40">
          <mxGeometry y="84" width="270" height="106" as="geometry" />
        </mxCell>
        <mxCell id="AjbQzTeru6gs-PDaE3Oq-44" value="&lt;&lt;View&gt;&gt;&#xa;Login" style="swimlane;fontStyle=1;align=center;verticalAlign=top;childLayout=stackLayout;horizontal=1;startSize=46;horizontalStack=0;resizeParent=1;resizeParentMax=0;resizeLast=0;collapsible=1;marginBottom=0;fontSize=15;" vertex="1" parent="WIyWlLk6GJQsqaUBKTNV-1">
          <mxGeometry x="970" y="1142" width="160" height="106" as="geometry" />
        </mxCell>
        <mxCell id="AjbQzTeru6gs-PDaE3Oq-45" value=" " style="text;strokeColor=none;fillColor=none;align=left;verticalAlign=top;spacingLeft=4;spacingRight=4;overflow=hidden;rotatable=0;points=[[0,0.5],[1,0.5]];portConstraint=eastwest;fontSize=15;" vertex="1" parent="AjbQzTeru6gs-PDaE3Oq-44">
          <mxGeometry y="46" width="160" height="26" as="geometry" />
        </mxCell>
        <mxCell id="AjbQzTeru6gs-PDaE3Oq-46" value="" style="line;strokeWidth=1;fillColor=none;align=left;verticalAlign=middle;spacingTop=-1;spacingLeft=3;spacingRight=3;rotatable=0;labelPosition=right;points=[];portConstraint=eastwest;fontSize=15;" vertex="1" parent="AjbQzTeru6gs-PDaE3Oq-44">
          <mxGeometry y="72" width="160" height="8" as="geometry" />
        </mxCell>
        <mxCell id="AjbQzTeru6gs-PDaE3Oq-47" value=" " style="text;strokeColor=none;fillColor=none;align=left;verticalAlign=top;spacingLeft=4;spacingRight=4;overflow=hidden;rotatable=0;points=[[0,0.5],[1,0.5]];portConstraint=eastwest;fontSize=15;" vertex="1" parent="AjbQzTeru6gs-PDaE3Oq-44">
          <mxGeometry y="80" width="160" height="26" as="geometry" />
        </mxCell>
        <mxCell id="AjbQzTeru6gs-PDaE3Oq-48" value="&lt;&lt;View&gt;&gt;&#xa;HalamanUtama" style="swimlane;fontStyle=1;align=center;verticalAlign=top;childLayout=stackLayout;horizontal=1;startSize=50;horizontalStack=0;resizeParent=1;resizeParentMax=0;resizeLast=0;collapsible=1;marginBottom=0;fontSize=15;" vertex="1" parent="WIyWlLk6GJQsqaUBKTNV-1">
          <mxGeometry x="1300" y="1142" width="160" height="110" as="geometry" />
        </mxCell>
        <mxCell id="AjbQzTeru6gs-PDaE3Oq-49" value=" " style="text;strokeColor=none;fillColor=none;align=left;verticalAlign=top;spacingLeft=4;spacingRight=4;overflow=hidden;rotatable=0;points=[[0,0.5],[1,0.5]];portConstraint=eastwest;fontSize=15;" vertex="1" parent="AjbQzTeru6gs-PDaE3Oq-48">
          <mxGeometry y="50" width="160" height="26" as="geometry" />
        </mxCell>
        <mxCell id="AjbQzTeru6gs-PDaE3Oq-50" value="" style="line;strokeWidth=1;fillColor=none;align=left;verticalAlign=middle;spacingTop=-1;spacingLeft=3;spacingRight=3;rotatable=0;labelPosition=right;points=[];portConstraint=eastwest;fontSize=15;" vertex="1" parent="AjbQzTeru6gs-PDaE3Oq-48">
          <mxGeometry y="76" width="160" height="8" as="geometry" />
        </mxCell>
        <mxCell id="AjbQzTeru6gs-PDaE3Oq-51" value=" " style="text;strokeColor=none;fillColor=none;align=left;verticalAlign=top;spacingLeft=4;spacingRight=4;overflow=hidden;rotatable=0;points=[[0,0.5],[1,0.5]];portConstraint=eastwest;fontSize=15;" vertex="1" parent="AjbQzTeru6gs-PDaE3Oq-48">
          <mxGeometry y="84" width="160" height="26" as="geometry" />
        </mxCell>
        <mxCell id="AjbQzTeru6gs-PDaE3Oq-52" value="&lt;&lt;View&gt;&gt;&#xa;KatalogProduk" style="swimlane;fontStyle=1;align=center;verticalAlign=top;childLayout=stackLayout;horizontal=1;startSize=50;horizontalStack=0;resizeParent=1;resizeParentMax=0;resizeLast=0;collapsible=1;marginBottom=0;fontSize=15;" vertex="1" parent="WIyWlLk6GJQsqaUBKTNV-1">
          <mxGeometry x="970" y="790" width="160" height="110" as="geometry" />
        </mxCell>
        <mxCell id="AjbQzTeru6gs-PDaE3Oq-53" value=" " style="text;strokeColor=none;fillColor=none;align=left;verticalAlign=top;spacingLeft=4;spacingRight=4;overflow=hidden;rotatable=0;points=[[0,0.5],[1,0.5]];portConstraint=eastwest;fontSize=15;" vertex="1" parent="AjbQzTeru6gs-PDaE3Oq-52">
          <mxGeometry y="50" width="160" height="26" as="geometry" />
        </mxCell>
        <mxCell id="AjbQzTeru6gs-PDaE3Oq-54" value="" style="line;strokeWidth=1;fillColor=none;align=left;verticalAlign=middle;spacingTop=-1;spacingLeft=3;spacingRight=3;rotatable=0;labelPosition=right;points=[];portConstraint=eastwest;fontSize=15;" vertex="1" parent="AjbQzTeru6gs-PDaE3Oq-52">
          <mxGeometry y="76" width="160" height="8" as="geometry" />
        </mxCell>
        <mxCell id="AjbQzTeru6gs-PDaE3Oq-55" value=" " style="text;strokeColor=none;fillColor=none;align=left;verticalAlign=top;spacingLeft=4;spacingRight=4;overflow=hidden;rotatable=0;points=[[0,0.5],[1,0.5]];portConstraint=eastwest;fontSize=15;" vertex="1" parent="AjbQzTeru6gs-PDaE3Oq-52">
          <mxGeometry y="84" width="160" height="26" as="geometry" />
        </mxCell>
        <mxCell id="AjbQzTeru6gs-PDaE3Oq-56" value="&lt;&lt;View&gt;&gt;&#xa;Transaksi" style="swimlane;fontStyle=1;align=center;verticalAlign=top;childLayout=stackLayout;horizontal=1;startSize=50;horizontalStack=0;resizeParent=1;resizeParentMax=0;resizeLast=0;collapsible=1;marginBottom=0;fontSize=15;" vertex="1" parent="WIyWlLk6GJQsqaUBKTNV-1">
          <mxGeometry x="950" y="1550" width="160" height="110" as="geometry" />
        </mxCell>
        <mxCell id="AjbQzTeru6gs-PDaE3Oq-57" value=" " style="text;strokeColor=none;fillColor=none;align=left;verticalAlign=top;spacingLeft=4;spacingRight=4;overflow=hidden;rotatable=0;points=[[0,0.5],[1,0.5]];portConstraint=eastwest;fontSize=15;" vertex="1" parent="AjbQzTeru6gs-PDaE3Oq-56">
          <mxGeometry y="50" width="160" height="26" as="geometry" />
        </mxCell>
        <mxCell id="AjbQzTeru6gs-PDaE3Oq-58" value="" style="line;strokeWidth=1;fillColor=none;align=left;verticalAlign=middle;spacingTop=-1;spacingLeft=3;spacingRight=3;rotatable=0;labelPosition=right;points=[];portConstraint=eastwest;fontSize=15;" vertex="1" parent="AjbQzTeru6gs-PDaE3Oq-56">
          <mxGeometry y="76" width="160" height="8" as="geometry" />
        </mxCell>
        <mxCell id="AjbQzTeru6gs-PDaE3Oq-59" value=" " style="text;strokeColor=none;fillColor=none;align=left;verticalAlign=top;spacingLeft=4;spacingRight=4;overflow=hidden;rotatable=0;points=[[0,0.5],[1,0.5]];portConstraint=eastwest;fontSize=15;" vertex="1" parent="AjbQzTeru6gs-PDaE3Oq-56">
          <mxGeometry y="84" width="160" height="26" as="geometry" />
        </mxCell>
        <mxCell id="AjbQzTeru6gs-PDaE3Oq-60" value="&lt;&lt;View&gt;&gt;&#xa;TransaksiDetail" style="swimlane;fontStyle=1;align=center;verticalAlign=top;childLayout=stackLayout;horizontal=1;startSize=50;horizontalStack=0;resizeParent=1;resizeParentMax=0;resizeLast=0;collapsible=1;marginBottom=0;fontSize=15;" vertex="1" parent="WIyWlLk6GJQsqaUBKTNV-1">
          <mxGeometry x="1170" y="1630" width="160" height="110" as="geometry" />
        </mxCell>
        <mxCell id="AjbQzTeru6gs-PDaE3Oq-61" value=" " style="text;strokeColor=none;fillColor=none;align=left;verticalAlign=top;spacingLeft=4;spacingRight=4;overflow=hidden;rotatable=0;points=[[0,0.5],[1,0.5]];portConstraint=eastwest;fontSize=15;" vertex="1" parent="AjbQzTeru6gs-PDaE3Oq-60">
          <mxGeometry y="50" width="160" height="26" as="geometry" />
        </mxCell>
        <mxCell id="AjbQzTeru6gs-PDaE3Oq-62" value="" style="line;strokeWidth=1;fillColor=none;align=left;verticalAlign=middle;spacingTop=-1;spacingLeft=3;spacingRight=3;rotatable=0;labelPosition=right;points=[];portConstraint=eastwest;fontSize=15;" vertex="1" parent="AjbQzTeru6gs-PDaE3Oq-60">
          <mxGeometry y="76" width="160" height="8" as="geometry" />
        </mxCell>
        <mxCell id="AjbQzTeru6gs-PDaE3Oq-63" value=" " style="text;strokeColor=none;fillColor=none;align=left;verticalAlign=top;spacingLeft=4;spacingRight=4;overflow=hidden;rotatable=0;points=[[0,0.5],[1,0.5]];portConstraint=eastwest;fontSize=15;" vertex="1" parent="AjbQzTeru6gs-PDaE3Oq-60">
          <mxGeometry y="84" width="160" height="26" as="geometry" />
        </mxCell>
        <mxCell id="AjbQzTeru6gs-PDaE3Oq-64" value="&lt;&lt;Controller&gt;&gt;&#xa;KB_ArtikelBusinessFacade" style="swimlane;fontStyle=1;align=center;verticalAlign=top;childLayout=stackLayout;horizontal=1;startSize=50;horizontalStack=0;resizeParent=1;resizeParentMax=0;resizeLast=0;collapsible=1;marginBottom=0;fontSize=15;" vertex="1" parent="WIyWlLk6GJQsqaUBKTNV-1">
          <mxGeometry x="1760" y="740" width="250" height="190" as="geometry" />
        </mxCell>
        <mxCell id="AjbQzTeru6gs-PDaE3Oq-65" value=" " style="text;strokeColor=none;fillColor=none;align=left;verticalAlign=top;spacingLeft=4;spacingRight=4;overflow=hidden;rotatable=0;points=[[0,0.5],[1,0.5]];portConstraint=eastwest;fontSize=15;" vertex="1" parent="AjbQzTeru6gs-PDaE3Oq-64">
          <mxGeometry y="50" width="250" height="26" as="geometry" />
        </mxCell>
        <mxCell id="AjbQzTeru6gs-PDaE3Oq-66" value="" style="line;strokeWidth=1;fillColor=none;align=left;verticalAlign=middle;spacingTop=-1;spacingLeft=3;spacingRight=3;rotatable=0;labelPosition=right;points=[];portConstraint=eastwest;fontSize=15;" vertex="1" parent="AjbQzTeru6gs-PDaE3Oq-64">
          <mxGeometry y="76" width="250" height="8" as="geometry" />
        </mxCell>
        <mxCell id="AjbQzTeru6gs-PDaE3Oq-67" value="+ Create()&#xa;+ Retreive()&#xa;+ RetreiveWithCondition()&#xa;+ Update()&#xa;+ Delete()" style="text;strokeColor=none;fillColor=none;align=left;verticalAlign=top;spacingLeft=4;spacingRight=4;overflow=hidden;rotatable=0;points=[[0,0.5],[1,0.5]];portConstraint=eastwest;fontSize=15;" vertex="1" parent="AjbQzTeru6gs-PDaE3Oq-64">
          <mxGeometry y="84" width="250" height="106" as="geometry" />
        </mxCell>
        <mxCell id="AjbQzTeru6gs-PDaE3Oq-72" value="&lt;&lt;Controller&gt;&gt;&#xa;KB_TransaksiBusinessFacade" style="swimlane;fontStyle=1;align=center;verticalAlign=top;childLayout=stackLayout;horizontal=1;startSize=50;horizontalStack=0;resizeParent=1;resizeParentMax=0;resizeLast=0;collapsible=1;marginBottom=0;fontSize=15;" vertex="1" parent="WIyWlLk6GJQsqaUBKTNV-1">
          <mxGeometry x="1870" y="1118" width="240" height="130" as="geometry" />
        </mxCell>
        <mxCell id="AjbQzTeru6gs-PDaE3Oq-73" value=" " style="text;strokeColor=none;fillColor=none;align=left;verticalAlign=top;spacingLeft=4;spacingRight=4;overflow=hidden;rotatable=0;points=[[0,0.5],[1,0.5]];portConstraint=eastwest;fontSize=15;" vertex="1" parent="AjbQzTeru6gs-PDaE3Oq-72">
          <mxGeometry y="50" width="240" height="26" as="geometry" />
        </mxCell>
        <mxCell id="AjbQzTeru6gs-PDaE3Oq-74" value="" style="line;strokeWidth=1;fillColor=none;align=left;verticalAlign=middle;spacingTop=-1;spacingLeft=3;spacingRight=3;rotatable=0;labelPosition=right;points=[];portConstraint=eastwest;fontSize=15;" vertex="1" parent="AjbQzTeru6gs-PDaE3Oq-72">
          <mxGeometry y="76" width="240" height="8" as="geometry" />
        </mxCell>
        <mxCell id="AjbQzTeru6gs-PDaE3Oq-75" value="+ Retreive()&#xa;+ RetreiveWithCondition()&#xa;" style="text;strokeColor=none;fillColor=none;align=left;verticalAlign=top;spacingLeft=4;spacingRight=4;overflow=hidden;rotatable=0;points=[[0,0.5],[1,0.5]];portConstraint=eastwest;fontSize=15;" vertex="1" parent="AjbQzTeru6gs-PDaE3Oq-72">
          <mxGeometry y="84" width="240" height="46" as="geometry" />
        </mxCell>
        <mxCell id="AjbQzTeru6gs-PDaE3Oq-76" value="&lt;&lt;Model&gt;&gt;&#xa;KB_Artikel" style="swimlane;fontStyle=1;align=center;verticalAlign=top;childLayout=stackLayout;horizontal=1;startSize=50;horizontalStack=0;resizeParent=1;resizeParentMax=0;resizeLast=0;collapsible=1;marginBottom=0;fontSize=15;" vertex="1" parent="WIyWlLk6GJQsqaUBKTNV-1">
          <mxGeometry x="2170" y="750" width="230" height="294" as="geometry" />
        </mxCell>
        <mxCell id="AjbQzTeru6gs-PDaE3Oq-77" value="- NoDataArtikel : int&#xa;- NoDataUser : int&#xa;- Judul : string&#xa;- Tanggal : date&#xa;- Konten : string&#xa;- Foto : string&#xa;- StatusArtikel : int&#xa;- DibuatOleh : string&#xa;- WaktuDibuat : date&#xa;- DiubahOleh : string&#xa;- WaktuDiubah : date" style="text;strokeColor=none;fillColor=none;align=left;verticalAlign=top;spacingLeft=4;spacingRight=4;overflow=hidden;rotatable=0;points=[[0,0.5],[1,0.5]];portConstraint=eastwest;fontSize=15;" vertex="1" parent="AjbQzTeru6gs-PDaE3Oq-76">
          <mxGeometry y="50" width="230" height="210" as="geometry" />
        </mxCell>
        <mxCell id="AjbQzTeru6gs-PDaE3Oq-78" value="" style="line;strokeWidth=1;fillColor=none;align=left;verticalAlign=middle;spacingTop=-1;spacingLeft=3;spacingRight=3;rotatable=0;labelPosition=right;points=[];portConstraint=eastwest;fontSize=15;" vertex="1" parent="AjbQzTeru6gs-PDaE3Oq-76">
          <mxGeometry y="260" width="230" height="8" as="geometry" />
        </mxCell>
        <mxCell id="AjbQzTeru6gs-PDaE3Oq-79" value=" " style="text;strokeColor=none;fillColor=none;align=left;verticalAlign=top;spacingLeft=4;spacingRight=4;overflow=hidden;rotatable=0;points=[[0,0.5],[1,0.5]];portConstraint=eastwest;fontSize=15;" vertex="1" parent="AjbQzTeru6gs-PDaE3Oq-76">
          <mxGeometry y="268" width="230" height="26" as="geometry" />
        </mxCell>
        <mxCell id="AjbQzTeru6gs-PDaE3Oq-80" value="&lt;&lt;Model&gt;&gt;&#xa;KB_Transaksi" style="swimlane;fontStyle=1;align=center;verticalAlign=top;childLayout=stackLayout;horizontal=1;startSize=50;horizontalStack=0;resizeParent=1;resizeParentMax=0;resizeLast=0;collapsible=1;marginBottom=0;fontSize=15;" vertex="1" parent="WIyWlLk6GJQsqaUBKTNV-1">
          <mxGeometry x="2170" y="1090" width="230" height="204" as="geometry" />
        </mxCell>
        <mxCell id="AjbQzTeru6gs-PDaE3Oq-81" value="- NoDataTransaksi : int&#xa;- NoDataPenawaran : int&#xa;- DibuatOleh : string&#xa;- WaktuDibuat : date&#xa;- DiubahOleh : string&#xa;- WaktuDiubah : date" style="text;strokeColor=none;fillColor=none;align=left;verticalAlign=top;spacingLeft=4;spacingRight=4;overflow=hidden;rotatable=0;points=[[0,0.5],[1,0.5]];portConstraint=eastwest;fontSize=15;" vertex="1" parent="AjbQzTeru6gs-PDaE3Oq-80">
          <mxGeometry y="50" width="230" height="120" as="geometry" />
        </mxCell>
        <mxCell id="AjbQzTeru6gs-PDaE3Oq-82" value="" style="line;strokeWidth=1;fillColor=none;align=left;verticalAlign=middle;spacingTop=-1;spacingLeft=3;spacingRight=3;rotatable=0;labelPosition=right;points=[];portConstraint=eastwest;fontSize=15;" vertex="1" parent="AjbQzTeru6gs-PDaE3Oq-80">
          <mxGeometry y="170" width="230" height="8" as="geometry" />
        </mxCell>
        <mxCell id="AjbQzTeru6gs-PDaE3Oq-83" value=" " style="text;strokeColor=none;fillColor=none;align=left;verticalAlign=top;spacingLeft=4;spacingRight=4;overflow=hidden;rotatable=0;points=[[0,0.5],[1,0.5]];portConstraint=eastwest;fontSize=15;" vertex="1" parent="AjbQzTeru6gs-PDaE3Oq-80">
          <mxGeometry y="178" width="230" height="26" as="geometry" />
        </mxCell>
        <mxCell id="AjbQzTeru6gs-PDaE3Oq-84" value="&lt;&lt;Model&gt;&gt;&#xa;KB_ApprovalList" style="swimlane;fontStyle=1;align=center;verticalAlign=top;childLayout=stackLayout;horizontal=1;startSize=50;horizontalStack=0;resizeParent=1;resizeParentMax=0;resizeLast=0;collapsible=1;marginBottom=0;fontSize=15;" vertex="1" parent="WIyWlLk6GJQsqaUBKTNV-1">
          <mxGeometry x="2170" y="1448" width="230" height="314" as="geometry" />
        </mxCell>
        <mxCell id="AjbQzTeru6gs-PDaE3Oq-85" value="- NoDataApprovalList : int&#xa;- NoDataProduk : int&#xa;- ApprovalLevel : int&#xa;- NIK : int&#xa;- StatusApproval : string&#xa;- KeteranganApproval : string&#xa;- ApprovalDate : date&#xa;- IsNextApprover : string&#xa;- DibuatOleh : string&#xa;- WaktuDibuat : date&#xa;- DiubahOleh : string&#xa;- WaktuDiubah : date" style="text;strokeColor=none;fillColor=none;align=left;verticalAlign=top;spacingLeft=4;spacingRight=4;overflow=hidden;rotatable=0;points=[[0,0.5],[1,0.5]];portConstraint=eastwest;fontSize=15;" vertex="1" parent="AjbQzTeru6gs-PDaE3Oq-84">
          <mxGeometry y="50" width="230" height="230" as="geometry" />
        </mxCell>
        <mxCell id="AjbQzTeru6gs-PDaE3Oq-86" value="" style="line;strokeWidth=1;fillColor=none;align=left;verticalAlign=middle;spacingTop=-1;spacingLeft=3;spacingRight=3;rotatable=0;labelPosition=right;points=[];portConstraint=eastwest;fontSize=15;" vertex="1" parent="AjbQzTeru6gs-PDaE3Oq-84">
          <mxGeometry y="280" width="230" height="8" as="geometry" />
        </mxCell>
        <mxCell id="AjbQzTeru6gs-PDaE3Oq-87" value=" " style="text;strokeColor=none;fillColor=none;align=left;verticalAlign=top;spacingLeft=4;spacingRight=4;overflow=hidden;rotatable=0;points=[[0,0.5],[1,0.5]];portConstraint=eastwest;fontSize=15;" vertex="1" parent="AjbQzTeru6gs-PDaE3Oq-84">
          <mxGeometry y="288" width="230" height="26" as="geometry" />
        </mxCell>
        <mxCell id="AjbQzTeru6gs-PDaE3Oq-88" value="&lt;&lt;Controller&gt;&gt;&#xa;KB_ApprovalListBusinessFacade" style="swimlane;fontStyle=1;align=center;verticalAlign=top;childLayout=stackLayout;horizontal=1;startSize=50;horizontalStack=0;resizeParent=1;resizeParentMax=0;resizeLast=0;collapsible=1;marginBottom=0;fontSize=15;" vertex="1" parent="WIyWlLk6GJQsqaUBKTNV-1">
          <mxGeometry x="1750" y="1570" width="270" height="160" as="geometry" />
        </mxCell>
        <mxCell id="AjbQzTeru6gs-PDaE3Oq-89" value=" " style="text;strokeColor=none;fillColor=none;align=left;verticalAlign=top;spacingLeft=4;spacingRight=4;overflow=hidden;rotatable=0;points=[[0,0.5],[1,0.5]];portConstraint=eastwest;fontSize=15;" vertex="1" parent="AjbQzTeru6gs-PDaE3Oq-88">
          <mxGeometry y="50" width="270" height="26" as="geometry" />
        </mxCell>
        <mxCell id="AjbQzTeru6gs-PDaE3Oq-90" value="" style="line;strokeWidth=1;fillColor=none;align=left;verticalAlign=middle;spacingTop=-1;spacingLeft=3;spacingRight=3;rotatable=0;labelPosition=right;points=[];portConstraint=eastwest;fontSize=15;" vertex="1" parent="AjbQzTeru6gs-PDaE3Oq-88">
          <mxGeometry y="76" width="270" height="8" as="geometry" />
        </mxCell>
        <mxCell id="AjbQzTeru6gs-PDaE3Oq-91" value="+ Retreive()&#xa;+ RetreiveWithCondition()&#xa;+ Create()" style="text;strokeColor=none;fillColor=none;align=left;verticalAlign=top;spacingLeft=4;spacingRight=4;overflow=hidden;rotatable=0;points=[[0,0.5],[1,0.5]];portConstraint=eastwest;fontSize=15;" vertex="1" parent="AjbQzTeru6gs-PDaE3Oq-88">
          <mxGeometry y="84" width="270" height="76" as="geometry" />
        </mxCell>
        <mxCell id="AjbQzTeru6gs-PDaE3Oq-92" value="&lt;&lt;View&gt;&gt;&#xa;KelolaProduk" style="swimlane;fontStyle=1;align=center;verticalAlign=top;childLayout=stackLayout;horizontal=1;startSize=50;horizontalStack=0;resizeParent=1;resizeParentMax=0;resizeLast=0;collapsible=1;marginBottom=0;fontSize=15;" vertex="1" parent="WIyWlLk6GJQsqaUBKTNV-1">
          <mxGeometry x="1520" y="1142" width="160" height="110" as="geometry" />
        </mxCell>
        <mxCell id="AjbQzTeru6gs-PDaE3Oq-93" value=" " style="text;strokeColor=none;fillColor=none;align=left;verticalAlign=top;spacingLeft=4;spacingRight=4;overflow=hidden;rotatable=0;points=[[0,0.5],[1,0.5]];portConstraint=eastwest;fontSize=15;" vertex="1" parent="AjbQzTeru6gs-PDaE3Oq-92">
          <mxGeometry y="50" width="160" height="26" as="geometry" />
        </mxCell>
        <mxCell id="AjbQzTeru6gs-PDaE3Oq-94" value="" style="line;strokeWidth=1;fillColor=none;align=left;verticalAlign=middle;spacingTop=-1;spacingLeft=3;spacingRight=3;rotatable=0;labelPosition=right;points=[];portConstraint=eastwest;fontSize=15;" vertex="1" parent="AjbQzTeru6gs-PDaE3Oq-92">
          <mxGeometry y="76" width="160" height="8" as="geometry" />
        </mxCell>
        <mxCell id="AjbQzTeru6gs-PDaE3Oq-95" value=" " style="text;strokeColor=none;fillColor=none;align=left;verticalAlign=top;spacingLeft=4;spacingRight=4;overflow=hidden;rotatable=0;points=[[0,0.5],[1,0.5]];portConstraint=eastwest;fontSize=15;" vertex="1" parent="AjbQzTeru6gs-PDaE3Oq-92">
          <mxGeometry y="84" width="160" height="26" as="geometry" />
        </mxCell>
        <mxCell id="AjbQzTeru6gs-PDaE3Oq-96" value="&lt;&lt;View&gt;&gt;&#xa;Approval" style="swimlane;fontStyle=1;align=center;verticalAlign=top;childLayout=stackLayout;horizontal=1;startSize=50;horizontalStack=0;resizeParent=1;resizeParentMax=0;resizeLast=0;collapsible=1;marginBottom=0;fontSize=15;" vertex="1" parent="WIyWlLk6GJQsqaUBKTNV-1">
          <mxGeometry x="1740" y="1390" width="160" height="110" as="geometry" />
        </mxCell>
        <mxCell id="AjbQzTeru6gs-PDaE3Oq-97" value=" " style="text;strokeColor=none;fillColor=none;align=left;verticalAlign=top;spacingLeft=4;spacingRight=4;overflow=hidden;rotatable=0;points=[[0,0.5],[1,0.5]];portConstraint=eastwest;fontSize=15;" vertex="1" parent="AjbQzTeru6gs-PDaE3Oq-96">
          <mxGeometry y="50" width="160" height="26" as="geometry" />
        </mxCell>
        <mxCell id="AjbQzTeru6gs-PDaE3Oq-98" value="" style="line;strokeWidth=1;fillColor=none;align=left;verticalAlign=middle;spacingTop=-1;spacingLeft=3;spacingRight=3;rotatable=0;labelPosition=right;points=[];portConstraint=eastwest;fontSize=15;" vertex="1" parent="AjbQzTeru6gs-PDaE3Oq-96">
          <mxGeometry y="76" width="160" height="8" as="geometry" />
        </mxCell>
        <mxCell id="AjbQzTeru6gs-PDaE3Oq-99" value=" " style="text;strokeColor=none;fillColor=none;align=left;verticalAlign=top;spacingLeft=4;spacingRight=4;overflow=hidden;rotatable=0;points=[[0,0.5],[1,0.5]];portConstraint=eastwest;fontSize=15;" vertex="1" parent="AjbQzTeru6gs-PDaE3Oq-96">
          <mxGeometry y="84" width="160" height="26" as="geometry" />
        </mxCell>
        <mxCell id="AjbQzTeru6gs-PDaE3Oq-100" value="&lt;&lt;View&gt;&gt;&#xa;ApprovalDetail" style="swimlane;fontStyle=1;align=center;verticalAlign=top;childLayout=stackLayout;horizontal=1;startSize=50;horizontalStack=0;resizeParent=1;resizeParentMax=0;resizeLast=0;collapsible=1;marginBottom=0;fontSize=15;" vertex="1" parent="WIyWlLk6GJQsqaUBKTNV-1">
          <mxGeometry x="1960" y="1390" width="160" height="110" as="geometry" />
        </mxCell>
        <mxCell id="AjbQzTeru6gs-PDaE3Oq-101" value=" " style="text;strokeColor=none;fillColor=none;align=left;verticalAlign=top;spacingLeft=4;spacingRight=4;overflow=hidden;rotatable=0;points=[[0,0.5],[1,0.5]];portConstraint=eastwest;fontSize=15;" vertex="1" parent="AjbQzTeru6gs-PDaE3Oq-100">
          <mxGeometry y="50" width="160" height="26" as="geometry" />
        </mxCell>
        <mxCell id="AjbQzTeru6gs-PDaE3Oq-102" value="" style="line;strokeWidth=1;fillColor=none;align=left;verticalAlign=middle;spacingTop=-1;spacingLeft=3;spacingRight=3;rotatable=0;labelPosition=right;points=[];portConstraint=eastwest;fontSize=15;" vertex="1" parent="AjbQzTeru6gs-PDaE3Oq-100">
          <mxGeometry y="76" width="160" height="8" as="geometry" />
        </mxCell>
        <mxCell id="AjbQzTeru6gs-PDaE3Oq-103" value=" " style="text;strokeColor=none;fillColor=none;align=left;verticalAlign=top;spacingLeft=4;spacingRight=4;overflow=hidden;rotatable=0;points=[[0,0.5],[1,0.5]];portConstraint=eastwest;fontSize=15;" vertex="1" parent="AjbQzTeru6gs-PDaE3Oq-100">
          <mxGeometry y="84" width="160" height="26" as="geometry" />
        </mxCell>
        <mxCell id="AjbQzTeru6gs-PDaE3Oq-104" value="&lt;&lt;View&gt;&gt;&#xa;Report" style="swimlane;fontStyle=1;align=center;verticalAlign=top;childLayout=stackLayout;horizontal=1;startSize=50;horizontalStack=0;resizeParent=1;resizeParentMax=0;resizeLast=0;collapsible=1;marginBottom=0;fontSize=15;" vertex="1" parent="WIyWlLk6GJQsqaUBKTNV-1">
          <mxGeometry x="1690" y="1008" width="160" height="110" as="geometry" />
        </mxCell>
        <mxCell id="AjbQzTeru6gs-PDaE3Oq-105" value=" " style="text;strokeColor=none;fillColor=none;align=left;verticalAlign=top;spacingLeft=4;spacingRight=4;overflow=hidden;rotatable=0;points=[[0,0.5],[1,0.5]];portConstraint=eastwest;fontSize=15;" vertex="1" parent="AjbQzTeru6gs-PDaE3Oq-104">
          <mxGeometry y="50" width="160" height="26" as="geometry" />
        </mxCell>
        <mxCell id="AjbQzTeru6gs-PDaE3Oq-106" value="" style="line;strokeWidth=1;fillColor=none;align=left;verticalAlign=middle;spacingTop=-1;spacingLeft=3;spacingRight=3;rotatable=0;labelPosition=right;points=[];portConstraint=eastwest;fontSize=15;" vertex="1" parent="AjbQzTeru6gs-PDaE3Oq-104">
          <mxGeometry y="76" width="160" height="8" as="geometry" />
        </mxCell>
        <mxCell id="AjbQzTeru6gs-PDaE3Oq-107" value=" " style="text;strokeColor=none;fillColor=none;align=left;verticalAlign=top;spacingLeft=4;spacingRight=4;overflow=hidden;rotatable=0;points=[[0,0.5],[1,0.5]];portConstraint=eastwest;fontSize=15;" vertex="1" parent="AjbQzTeru6gs-PDaE3Oq-104">
          <mxGeometry y="84" width="160" height="26" as="geometry" />
        </mxCell>
        <mxCell id="AjbQzTeru6gs-PDaE3Oq-108" value="&lt;&lt;View&gt;&gt;&#xa;Artikel" style="swimlane;fontStyle=1;align=center;verticalAlign=top;childLayout=stackLayout;horizontal=1;startSize=50;horizontalStack=0;resizeParent=1;resizeParentMax=0;resizeLast=0;collapsible=1;marginBottom=0;fontSize=15;" vertex="1" parent="WIyWlLk6GJQsqaUBKTNV-1">
          <mxGeometry x="1350" y="640" width="160" height="110" as="geometry" />
        </mxCell>
        <mxCell id="AjbQzTeru6gs-PDaE3Oq-109" value=" " style="text;strokeColor=none;fillColor=none;align=left;verticalAlign=top;spacingLeft=4;spacingRight=4;overflow=hidden;rotatable=0;points=[[0,0.5],[1,0.5]];portConstraint=eastwest;fontSize=15;" vertex="1" parent="AjbQzTeru6gs-PDaE3Oq-108">
          <mxGeometry y="50" width="160" height="26" as="geometry" />
        </mxCell>
        <mxCell id="AjbQzTeru6gs-PDaE3Oq-110" value="" style="line;strokeWidth=1;fillColor=none;align=left;verticalAlign=middle;spacingTop=-1;spacingLeft=3;spacingRight=3;rotatable=0;labelPosition=right;points=[];portConstraint=eastwest;fontSize=15;" vertex="1" parent="AjbQzTeru6gs-PDaE3Oq-108">
          <mxGeometry y="76" width="160" height="8" as="geometry" />
        </mxCell>
        <mxCell id="AjbQzTeru6gs-PDaE3Oq-111" value=" " style="text;strokeColor=none;fillColor=none;align=left;verticalAlign=top;spacingLeft=4;spacingRight=4;overflow=hidden;rotatable=0;points=[[0,0.5],[1,0.5]];portConstraint=eastwest;fontSize=15;" vertex="1" parent="AjbQzTeru6gs-PDaE3Oq-108">
          <mxGeometry y="84" width="160" height="26" as="geometry" />
        </mxCell>
        <mxCell id="AjbQzTeru6gs-PDaE3Oq-112" value="&lt;&lt;View&gt;&gt;&#xa;KelolaArtikel" style="swimlane;fontStyle=1;align=center;verticalAlign=top;childLayout=stackLayout;horizontal=1;startSize=50;horizontalStack=0;resizeParent=1;resizeParentMax=0;resizeLast=0;collapsible=1;marginBottom=0;fontSize=15;" vertex="1" parent="WIyWlLk6GJQsqaUBKTNV-1">
          <mxGeometry x="1520" y="770" width="160" height="110" as="geometry" />
        </mxCell>
        <mxCell id="AjbQzTeru6gs-PDaE3Oq-113" value=" " style="text;strokeColor=none;fillColor=none;align=left;verticalAlign=top;spacingLeft=4;spacingRight=4;overflow=hidden;rotatable=0;points=[[0,0.5],[1,0.5]];portConstraint=eastwest;fontSize=15;" vertex="1" parent="AjbQzTeru6gs-PDaE3Oq-112">
          <mxGeometry y="50" width="160" height="26" as="geometry" />
        </mxCell>
        <mxCell id="AjbQzTeru6gs-PDaE3Oq-114" value="" style="line;strokeWidth=1;fillColor=none;align=left;verticalAlign=middle;spacingTop=-1;spacingLeft=3;spacingRight=3;rotatable=0;labelPosition=right;points=[];portConstraint=eastwest;fontSize=15;" vertex="1" parent="AjbQzTeru6gs-PDaE3Oq-112">
          <mxGeometry y="76" width="160" height="8" as="geometry" />
        </mxCell>
        <mxCell id="AjbQzTeru6gs-PDaE3Oq-115" value=" " style="text;strokeColor=none;fillColor=none;align=left;verticalAlign=top;spacingLeft=4;spacingRight=4;overflow=hidden;rotatable=0;points=[[0,0.5],[1,0.5]];portConstraint=eastwest;fontSize=15;" vertex="1" parent="AjbQzTeru6gs-PDaE3Oq-112">
          <mxGeometry y="84" width="160" height="26" as="geometry" />
        </mxCell>
      </root>
    </mxGraphModel>
  </diagram>
</mxfile>
